<svg width="32" height="32" viewBox="0 0 32 32" fill="none" xmlns="http://www.w3.org/2000/svg">
<path d="M15.9996 1.5874L15.2926 2.29442C15.2926 2.29442 11.5553 6.00125 5.99996 6.00125H5V16.0009C5 21.334 7.71618 24.9049 10.3748 27.0318C13.0334 29.1587 15.7125 29.9574 15.7125 29.9574L15.9996 30.0454L16.2867 29.9574C16.2867 29.9574 18.9657 29.1587 21.6243 27.0318C24.283 24.9049 26.9991 21.334 26.9991 16.0009V6.00125H25.9992C20.4438 6.00125 16.7066 2.29442 16.7066 2.29442L15.9996 1.5874ZM21.2923 11.2941L22.7063 12.708L14.9996 20.4147L10.2928 15.7079L11.7068 14.2939L14.9996 17.5868L21.2923 11.2941Z" fill="#3E8E2A"/>
</svg>
